<?xml version="1.0" standalone="no"?>
<!DOCTYPE svg PUBLIC "-//W3C//DTD SVG 1.1//EN" "http://www.w3.org/Graphics/SVG/1.1/DTD/svg11.dtd">
<!-- Copyright (C) 2012 David Peterson -->
<svg stroke-width="0.501" stroke-linejoin="bevel" fill-rule="evenodd" xmlns:xlink="http://www.w3.org/1999/xlink" xmlns="http://www.w3.org/2000/svg" version="1.1" overflow="visible" width="328.82pt" height="181.418pt" viewBox="0 0 328.82 181.418">
 <defs>
  <marker id="DefaultArrow2" markerUnits="strokeWidth" viewBox="0 0 1 1" markerWidth="1" markerHeight="1" overflow="visible" orient="auto">
   <!-- REF_ARROW_STRAIGHT (-2) -->
   <g transform="scale(0.0092592592)">
    <!-- 1/108 -->
    <path d="M -9 54 L -9 -54 L 117 0 z"/>
   </g>
  </marker>
  <marker id="DefaultArrow3" markerUnits="strokeWidth" viewBox="0 0 1 1" markerWidth="1" markerHeight="1" overflow="visible" orient="auto">
   <!-- REF_ARROW_ANGLED -->
   <g transform="scale(0.0092592592)">
    <path d="M -27 54 L -9 0 L -27 -54 L 135 0 z"/>
   </g>
  </marker>
  <marker id="DefaultArrow4" markerUnits="strokeWidth" viewBox="0 0 1 1" markerWidth="1" markerHeight="1" overflow="visible" orient="auto">
   <!-- REF_ARROW_ROUNDED -->
   <g transform="scale(0.0092592592)">
    <path d="M -9,0 L -9,-45 C -9,-51.708 2.808,-56.580 9,-54 L 117,-9 C 120.916,-7.369 126.000,-4.242 126,0 C 126,4.242 120.916,7.369 117,9 L 9,54 C 2.808,56.580 -9,51.708 -9,45 z"/>
   </g>
  </marker>
  <marker id="DefaultArrow5" markerUnits="strokeWidth" viewBox="0 0 1 1" markerWidth="1" markerHeight="1" overflow="visible" orient="auto">
   <!-- REF_ARROW_SPOT -->
   <g transform="scale(0.0092592592)">
    <path d="M -54, 0 C -54,29.807 -29.807,54 0,54 C 29.807,54 54,29.807 54,0 C 54,-29.807 29.807,-54 0,-54 C -29.807,-54 -54,-29.807 -54,0 z"/>
   </g>
  </marker>
  <marker id="DefaultArrow6" markerUnits="strokeWidth" viewBox="0 0 1 1" markerWidth="1" markerHeight="1" overflow="visible" orient="auto">
   <!-- REF_ARROW_DIAMOND -->
   <g transform="scale(0.0092592592)">
    <path d="M -63,0 L 0,63 L 63,0 L 0,-63 z"/>
   </g>
  </marker>
  <marker id="DefaultArrow7" markerUnits="strokeWidth" viewBox="0 0 1 1" markerWidth="1" markerHeight="1" overflow="visible" orient="auto">
   <!-- REF_ARROW_FEATHER -->
   <g transform="scale(0.0092592592)">
    <path d="M 18,-54 L 108,-54 L 63,0 L 108,54 L 18, 54 L -36,0 z"/>
   </g>
  </marker>
  <marker id="DefaultArrow8" markerUnits="strokeWidth" viewBox="0 0 1 1" markerWidth="1" markerHeight="1" overflow="visible" orient="auto">
   <!-- REF_ARROW_FEATHER2 -->
   <g transform="scale(0.0092592592)">
    <path d="M -36,0 L 18,-54 L 54,-54 L 18,-18 L 27,-18 L 63,-54 L 99,-54 L 63,-18 L 72,-18 L 108,-54 L 144,-54 L 90,0 L 144,54 L 108,54 L 72,18 L 63,18 L 99,54 L 63,54 L 27,18 L 18,18 L 54,54 L 18,54 z"/>
   </g>
  </marker>
  <marker id="DefaultArrow9" markerUnits="strokeWidth" viewBox="0 0 1 1" markerWidth="1" markerHeight="1" overflow="visible" orient="auto">
   <!-- REF_ARROW_HOLLOWDIAMOND -->
   <g transform="scale(0.0092592592)">
    <path d="M 0,45 L -45,0 L 0, -45 L 45, 0 z M 0, 63 L-63, 0 L 0, -63 L 63, 0 z"/>
   </g>
  </marker>
  <filter id="StainedFilter">
   <feBlend mode="multiply" in2="BackgroundImage" in="SourceGraphic" result="blend"/>
   <feComposite in="blend" in2="SourceAlpha" operator="in" result="comp"/>
  </filter>
  <filter id="BleachFilter">
   <feBlend mode="screen" in2="BackgroundImage" in="SourceGraphic" result="blend"/>
   <feComposite in="blend" in2="SourceAlpha" operator="in" result="comp"/>
  </filter>
  <filter id="InvertTransparencyBitmapFilter">
   <feComponentTransfer>
    <feFuncR type="gamma" amplitude="1.055" exponent=".416666666" offset="-0.055"/>
    <feFuncG type="gamma" amplitude="1.055" exponent=".416666666" offset="-0.055"/>
    <feFuncB type="gamma" amplitude="1.055" exponent=".416666666" offset="-0.055"/>
   </feComponentTransfer>
   <feComponentTransfer>
    <feFuncR type="linear" slope="-1" intercept="1"/>
    <feFuncG type="linear" slope="-1" intercept="1"/>
    <feFuncB type="linear" slope="-1" intercept="1"/>
    <feFuncA type="linear" slope="1" intercept="0"/>
   </feComponentTransfer>
   <feComponentTransfer>
    <feFuncR type="gamma" amplitude="1" exponent="2.4" offset="0"/>
    <feFuncG type="gamma" amplitude="1" exponent="2.4" offset="0"/>
    <feFuncB type="gamma" amplitude="1" exponent="2.4" offset="0"/>
   </feComponentTransfer>
  </filter>
  <marker id="DefaultArrowScaled" markerUnits="strokeWidth" viewBox="0 0 1 1" markerWidth="13" markerHeight="13" overflow="visible" orient="auto">
   <!-- REF_ARROW_ANGLED -->
   <g transform="scale(0.0092592592)">
    <path d="M -27 54 L -9 0 L -27 -54 L 135 0 z"/>
   </g>
  </marker>
  <marker id="DefaultArrowScaled_1" markerUnits="strokeWidth" viewBox="0 0 1 1" markerWidth="13" markerHeight="13" overflow="visible" orient="auto">
   <!-- REF_ARROW_ANGLED -->
   <g transform="scale(0.0092592592)">
    <path d="M -27 54 L -9 0 L -27 -54 L 135 0 z"/>
   </g>
  </marker>
  <linearGradient id="LinearGradient" gradientUnits="userSpaceOnUse" x1="0" y1="0" x2="2.383" y2="0" gradientTransform="translate(166.128 99.324) rotate(-137.925) skewX(9.57941)">
   <stop offset="0" stop-color="#ffffff"/>
   <stop offset="1" stop-color="#e5e5e5"/>
  </linearGradient>
  <linearGradient id="LinearGradient_1" gradientUnits="userSpaceOnUse" x1="0" y1="0" x2="3.417" y2="0" gradientTransform="translate(174.885 92.902) rotate(-130.121)">
   <stop offset="0" stop-color="#ffffff"/>
   <stop offset="1" stop-color="#cccccc"/>
  </linearGradient>
  <linearGradient id="LinearGradient_2" gradientUnits="userSpaceOnUse" x1="0" y1="0" x2="3.472" y2="0" gradientTransform="translate(178.518 89.792) rotate(-129.144) skewX(-1.6537)">
   <stop offset="0" stop-color="#ff8888"/>
   <stop offset="1" stop-color="#ce5757"/>
  </linearGradient>
 </defs>
 <g id="Document" fill="none" stroke="black" font-family="Times New Roman" font-size="16" transform="scale(1 -1)">
  <g id="Spread" transform="translate(0 -181.418)">
   <g id="Layer 1">
    <path d="M 42.552,164.502 L 42.552,123.687 C 42.552,118.836 46.49,114.898 51.341,114.898 L 118.802,114.898 C 123.653,114.898 127.591,118.836 127.591,123.687 L 127.591,164.502 C 127.591,169.353 123.653,173.291 118.802,173.291 L 51.341,173.291 C 46.49,173.291 42.552,169.353 42.552,164.502 Z" fill="#ffffff" stroke="#999999" stroke-width="0.5" stroke-linejoin="miter" marker-start="none" marker-end="none" stroke-miterlimit="79.8403193612775"/>
    <text xml:space="preserve" transform="translate(83.724 156.189) scale(1 -1)" fill="#999999" font-size="8.5" font-family="Arial" stroke="none" stroke-width="0.25" stroke-miterlimit="79.8403193612775"><tspan x="-30.71" y="0">Developers take</tspan><tspan x="-30.939" y="9.495">care to minimise </tspan><tspan x="-20.793" y="18.99">changes to </tspan><tspan x="-24.806" y="28.485">existing code</tspan></text>
    <path d="M 137.334,61.633 C 129.178,82.921 114.35,89.088 103.599,107.591" fill="none" marker-end="url(#DefaultArrowScaled)" stroke-width="0.5" stroke-miterlimit="79.8403193612775"/>
    <path d="M 36.3,61.633 C 44.456,82.921 59.284,89.088 70.035,107.591" fill="none" marker-end="url(#DefaultArrowScaled_1)" stroke-width="0.5" stroke-miterlimit="79.8403193612775"/>
    <path d="M 86.625,93.175 C 111.262,93.175 131.258,90.85 131.258,87.985 C 131.258,85.12 111.262,82.795 86.625,82.795 C 61.988,82.795 41.992,85.12 41.992,87.985 C 41.992,90.85 61.988,93.175 86.625,93.175 Z" fill="#ffffff" stroke-width="0.5" marker-start="none" marker-end="none" stroke-miterlimit="79.8403193612775"/>
    <path d="M 4.569,59.987 L 4.569,25.492 C 4.569,21.392 7.897,18.064 11.997,18.064 L 72.242,18.064 C 76.342,18.064 79.67,21.392 79.67,25.492 L 79.67,59.987 C 79.67,64.087 76.342,67.415 72.242,67.415 L 11.997,67.415 C 7.897,67.415 4.569,64.087 4.569,59.987 Z" fill="#f7f7f7" stroke-width="0.5" stroke-linejoin="miter" marker-start="none" marker-end="none" stroke-miterlimit="79.8403193612775"/>
    <path d="M 98.172,59.607 L 98.172,18.792 C 98.172,13.941 102.11,10.003 106.961,10.003 L 174.422,10.003 C 179.273,10.003 183.211,13.941 183.211,18.792 L 183.211,59.607 C 183.211,64.458 179.273,68.396 174.422,68.396 L 106.961,68.396 C 102.11,68.396 98.172,64.458 98.172,59.607 Z" fill="#ffffff" stroke="#999999" stroke-width="0.5" stroke-linejoin="miter" marker-start="none" marker-end="none" stroke-miterlimit="79.8403193612775"/>
    <text xml:space="preserve" transform="translate(42.001 50.086) scale(1 -1)" font-size="8.5" font-family="Arial" stroke="none" stroke-width="0.25" fill="#000000" stroke-miterlimit="79.8403193612775"><tspan x="-27.404" y="0">Developers do</tspan><tspan x="-20.791" y="9.495">not want to</tspan><tspan x="-27.879" y="18.99">introduce bugs</tspan></text>
    <text xml:space="preserve" transform="translate(140.693 50.45) scale(1 -1)" fill="#7f7f7f" font-family="Arial" stroke-width="0.25" stroke="none" font-size="8.5" stroke-miterlimit="79.8403193612775"><tspan x="-21.495" y="0">It is easy to</tspan><tspan x="-29.299" y="9.495">introduce a bug</tspan><tspan x="-28.59" y="18.99">when changing</tspan><tspan x="-9.215" y="28.485">code</tspan></text>
    <text xml:space="preserve" transform="translate(85.119 85.447) scale(1 -1)" font-size="8.5" font-family="Arial" stroke="none" stroke-width="0.25" fill="#000000" stroke-miterlimit="79.8403193612775"><tspan x="-8.972" y="0">AND</tspan></text>
    <text xml:space="preserve" transform="translate(11.619 71.197) scale(1 -1)" font-size="8.5" font-family="Arial" stroke="none" stroke-width="0.25" fill="#000000" stroke-miterlimit="79.8403193612775"><tspan x="-6.849" y="0">IF</tspan><tspan x="-0.236" y="0">...</tspan></text>
    <text xml:space="preserve" transform="translate(49.869 104.947) scale(1 -1)" font-size="8.5" font-family="Arial" stroke="none" stroke-width="0.25" fill="#000000" stroke-miterlimit="79.8403193612775"><tspan x="-15.111" y="0">THEN...</tspan></text>
    <path d="M 93.369,72.346 L 191.619,7.846" fill="none" stroke="#999999" stroke-width="1" stroke-miterlimit="79.8403193612775"/>
    <path d="M 191.619,72.346 L 93.369,7.846" fill="none" stroke="#999999" stroke-width="1" stroke-miterlimit="79.8403193612775"/>
    <path d="M 151.034,112.07 L 151.034,58.828 L 323.111,58.828 L 323.111,112.07 L 151.034,112.07 Z" stroke="#e4d1c4" fill="#fff1e6" stroke-width="1.593" stroke-linejoin="miter" marker-start="none" marker-end="none" stroke-miterlimit="79.8403193612775"/>
    <g id="Group" stroke-width="0.739" stroke-miterlimit="79.8403193612775">
     <path d="M 189.545,77.857 L 180.271,85.671 L 180.494,85.933 L 189.765,78.118 C 191.129,76.894 190.632,77.016 189.545,77.857 Z" fill="#ffffff" stroke-linejoin="miter" marker-start="none" marker-end="none"/>
     <path d="M 183.452,81.509 L 179.548,84.798 L 181.23,86.796 L 185.134,83.504 C 185.444,82.675 184.172,81.468 183.452,81.509 Z" fill="#b2b2b2" stroke-linejoin="miter" marker-start="none" marker-end="none"/>
     <path d="M 162.614,100.778 C 164.191,102.65 165.9,103.807 166.429,103.362 C 166.957,102.916 166.107,101.036 164.53,99.164 C 162.953,97.292 161.244,96.135 160.715,96.58 C 160.187,97.026 161.037,98.906 162.614,100.778 Z" fill="#cccccc" marker-start="none" marker-end="none"/>
     <path d="M 162.998,98.339 L 166.603,95.302 L 168.68,97.769 L 165.076,100.806 C 164.216,101.15 162.472,98.999 162.998,98.339 Z" stroke-linejoin="miter" marker-start="none" marker-end="none" fill="url(#LinearGradient)"/>
     <path d="M 167.047,97.044 C 169.693,100.185 172.352,102.304 172.982,101.774 C 173.611,101.244 171.974,98.264 169.327,95.122 C 166.681,91.981 164.022,89.862 163.392,90.392 C 162.763,90.922 164.4,93.902 167.047,97.044 Z" fill="#cccccc" marker-start="none" marker-end="none"/>
     <path d="M 167.093,93.881 L 180.3,82.755 C 181.406,81.761 184.204,85.378 183.372,86.401 L 170.166,97.526 C 169.213,98.215 166.411,94.617 167.093,93.881 Z" stroke-linejoin="miter" marker-start="none" marker-end="none" fill="url(#LinearGradient_1)"/>
     <path d="M 174.372,88.237 L 180.654,82.946 C 182.132,83.393 182.971,84.387 183.264,86.044 L 176.986,91.337 L 174.372,88.237 Z" stroke="none" stroke-linejoin="miter" marker-start="none" marker-end="none" fill="url(#LinearGradient_2)"/>
     <path d="M 171.169,90.569 C 171.077,90.885 171.902,91.984 172.482,92.431" fill="none"/>
     <path d="M 173.066,88.976 C 173.062,89.215 173.913,90.292 174.439,90.78" fill="none"/>
     <path d="M 174.841,87.478 L 176.288,89.225" fill="none"/>
     <path d="M 178.789,84.151 C 179.118,84.113 180.058,85.113 180.402,85.76" fill="none"/>
     <path d="M 176.848,85.786 C 177.059,85.85 177.97,86.873 178.375,87.465" fill="none"/>
    </g>
    <text xml:space="preserve" transform="translate(203.574 97.447) scale(1 -1)" font-size="8.5" font-family="Arial" stroke="none" stroke-width="0.25" fill="#000000" stroke-miterlimit="79.8403193612775"><tspan x="0" y="0">W</tspan><tspan x="7.87" y="0">rite a full set of automated </tspan><tspan x="0" y="9.495">regression tests that can be</tspan><tspan x="0" y="18.99">run after every code change</tspan><tspan x="0" y="28.485">to catch bugs.</tspan></text>
    <path d="M 36.669,177.241 L 134.919,112.741" fill="none" stroke="#999999" stroke-width="1" stroke-miterlimit="79.8403193612775"/>
    <path d="M 134.919,177.241 L 36.669,112.741" fill="none" stroke="#999999" stroke-width="1" stroke-miterlimit="79.8403193612775"/>
   </g>
  </g>
 </g>
</svg>
