<?xml version="1.0" standalone="no"?>
<!DOCTYPE svg PUBLIC "-//W3C//DTD SVG 1.1//EN" "http://www.w3.org/Graphics/SVG/1.1/DTD/svg11.dtd">
<!-- Copyright (C) 2012 David Peterson -->
<svg stroke-width="0.501" stroke-linejoin="bevel" fill-rule="evenodd" xmlns:xlink="http://www.w3.org/1999/xlink" xmlns="http://www.w3.org/2000/svg" version="1.1" overflow="visible" width="362.836pt" height="175.748pt" viewBox="0 0 362.836 175.748">
 <defs>
  <marker id="DefaultArrow2" markerUnits="strokeWidth" viewBox="0 0 1 1" markerWidth="1" markerHeight="1" overflow="visible" orient="auto">
   <!-- REF_ARROW_STRAIGHT (-2) -->
   <g transform="scale(0.0092592592)">
    <!-- 1/108 -->
    <path d="M -9 54 L -9 -54 L 117 0 z"/>
   </g>
  </marker>
  <marker id="DefaultArrow3" markerUnits="strokeWidth" viewBox="0 0 1 1" markerWidth="1" markerHeight="1" overflow="visible" orient="auto">
   <!-- REF_ARROW_ANGLED -->
   <g transform="scale(0.0092592592)">
    <path d="M -27 54 L -9 0 L -27 -54 L 135 0 z"/>
   </g>
  </marker>
  <marker id="DefaultArrow4" markerUnits="strokeWidth" viewBox="0 0 1 1" markerWidth="1" markerHeight="1" overflow="visible" orient="auto">
   <!-- REF_ARROW_ROUNDED -->
   <g transform="scale(0.0092592592)">
    <path d="M -9,0 L -9,-45 C -9,-51.708 2.808,-56.580 9,-54 L 117,-9 C 120.916,-7.369 126.000,-4.242 126,0 C 126,4.242 120.916,7.369 117,9 L 9,54 C 2.808,56.580 -9,51.708 -9,45 z"/>
   </g>
  </marker>
  <marker id="DefaultArrow5" markerUnits="strokeWidth" viewBox="0 0 1 1" markerWidth="1" markerHeight="1" overflow="visible" orient="auto">
   <!-- REF_ARROW_SPOT -->
   <g transform="scale(0.0092592592)">
    <path d="M -54, 0 C -54,29.807 -29.807,54 0,54 C 29.807,54 54,29.807 54,0 C 54,-29.807 29.807,-54 0,-54 C -29.807,-54 -54,-29.807 -54,0 z"/>
   </g>
  </marker>
  <marker id="DefaultArrow6" markerUnits="strokeWidth" viewBox="0 0 1 1" markerWidth="1" markerHeight="1" overflow="visible" orient="auto">
   <!-- REF_ARROW_DIAMOND -->
   <g transform="scale(0.0092592592)">
    <path d="M -63,0 L 0,63 L 63,0 L 0,-63 z"/>
   </g>
  </marker>
  <marker id="DefaultArrow7" markerUnits="strokeWidth" viewBox="0 0 1 1" markerWidth="1" markerHeight="1" overflow="visible" orient="auto">
   <!-- REF_ARROW_FEATHER -->
   <g transform="scale(0.0092592592)">
    <path d="M 18,-54 L 108,-54 L 63,0 L 108,54 L 18, 54 L -36,0 z"/>
   </g>
  </marker>
  <marker id="DefaultArrow8" markerUnits="strokeWidth" viewBox="0 0 1 1" markerWidth="1" markerHeight="1" overflow="visible" orient="auto">
   <!-- REF_ARROW_FEATHER2 -->
   <g transform="scale(0.0092592592)">
    <path d="M -36,0 L 18,-54 L 54,-54 L 18,-18 L 27,-18 L 63,-54 L 99,-54 L 63,-18 L 72,-18 L 108,-54 L 144,-54 L 90,0 L 144,54 L 108,54 L 72,18 L 63,18 L 99,54 L 63,54 L 27,18 L 18,18 L 54,54 L 18,54 z"/>
   </g>
  </marker>
  <marker id="DefaultArrow9" markerUnits="strokeWidth" viewBox="0 0 1 1" markerWidth="1" markerHeight="1" overflow="visible" orient="auto">
   <!-- REF_ARROW_HOLLOWDIAMOND -->
   <g transform="scale(0.0092592592)">
    <path d="M 0,45 L -45,0 L 0, -45 L 45, 0 z M 0, 63 L-63, 0 L 0, -63 L 63, 0 z"/>
   </g>
  </marker>
  <filter id="StainedFilter">
   <feBlend mode="multiply" in2="BackgroundImage" in="SourceGraphic" result="blend"/>
   <feComposite in="blend" in2="SourceAlpha" operator="in" result="comp"/>
  </filter>
  <filter id="BleachFilter">
   <feBlend mode="screen" in2="BackgroundImage" in="SourceGraphic" result="blend"/>
   <feComposite in="blend" in2="SourceAlpha" operator="in" result="comp"/>
  </filter>
  <filter id="InvertTransparencyBitmapFilter">
   <feComponentTransfer>
    <feFuncR type="gamma" amplitude="1.055" exponent=".416666666" offset="-0.055"/>
    <feFuncG type="gamma" amplitude="1.055" exponent=".416666666" offset="-0.055"/>
    <feFuncB type="gamma" amplitude="1.055" exponent=".416666666" offset="-0.055"/>
   </feComponentTransfer>
   <feComponentTransfer>
    <feFuncR type="linear" slope="-1" intercept="1"/>
    <feFuncG type="linear" slope="-1" intercept="1"/>
    <feFuncB type="linear" slope="-1" intercept="1"/>
    <feFuncA type="linear" slope="1" intercept="0"/>
   </feComponentTransfer>
   <feComponentTransfer>
    <feFuncR type="gamma" amplitude="1" exponent="2.4" offset="0"/>
    <feFuncG type="gamma" amplitude="1" exponent="2.4" offset="0"/>
    <feFuncB type="gamma" amplitude="1" exponent="2.4" offset="0"/>
   </feComponentTransfer>
  </filter>
  <marker id="DefaultArrowScaled" markerUnits="strokeWidth" viewBox="0 0 1 1" markerWidth="13" markerHeight="13" overflow="visible" orient="auto">
   <!-- REF_ARROW_ANGLED -->
   <g transform="scale(0.0092592592)">
    <path d="M -27 54 L -9 0 L -27 -54 L 135 0 z"/>
   </g>
  </marker>
  <marker id="DefaultArrowScaled_1" markerUnits="strokeWidth" viewBox="0 0 1 1" markerWidth="13" markerHeight="13" overflow="visible" orient="auto">
   <!-- REF_ARROW_ANGLED -->
   <g transform="scale(0.0092592592)">
    <path d="M -27 54 L -9 0 L -27 -54 L 135 0 z"/>
   </g>
  </marker>
  <linearGradient id="LinearGradient" gradientUnits="userSpaceOnUse" x1="0" y1="0" x2="2.383" y2="0" gradientTransform="translate(167.028 90.624) rotate(-137.925) skewX(9.57941)">
   <stop offset="0" stop-color="#ffffff"/>
   <stop offset="1" stop-color="#e5e5e5"/>
  </linearGradient>
  <linearGradient id="LinearGradient_1" gradientUnits="userSpaceOnUse" x1="0" y1="0" x2="3.417" y2="0" gradientTransform="translate(175.785 84.202) rotate(-130.121)">
   <stop offset="0" stop-color="#ffffff"/>
   <stop offset="1" stop-color="#cccccc"/>
  </linearGradient>
  <linearGradient id="LinearGradient_2" gradientUnits="userSpaceOnUse" x1="0" y1="0" x2="3.472" y2="0" gradientTransform="translate(179.418 81.092) rotate(-129.144) skewX(-1.6537)">
   <stop offset="0" stop-color="#ff8888"/>
   <stop offset="1" stop-color="#ce5757"/>
  </linearGradient>
 </defs>
 <g id="Document" fill="none" stroke="black" font-family="Times New Roman" font-size="16" transform="scale(1 -1)">
  <g id="Spread" transform="translate(0 -175.748)">
   <g id="Layer 1">
    <path d="M 136.794,56.683 C 128.638,77.971 113.81,84.138 103.059,102.641" fill="none" marker-end="url(#DefaultArrowScaled)" stroke-width="0.5" stroke-miterlimit="79.8403193612775"/>
    <path d="M 35.76,56.683 C 43.916,77.971 58.744,84.138 69.495,102.641" fill="none" marker-end="url(#DefaultArrowScaled_1)" stroke-width="0.5" stroke-miterlimit="79.8403193612775"/>
    <path d="M 86.085,88.225 C 110.722,88.225 130.718,85.9 130.718,83.035 C 130.718,80.17 110.722,77.845 86.085,77.845 C 61.448,77.845 41.452,80.17 41.452,83.035 C 41.452,85.9 61.448,88.225 86.085,88.225 Z" fill="#ffffff" stroke-width="0.5" marker-start="none" marker-end="none" stroke-miterlimit="79.8403193612775"/>
    <path d="M 4.029,55.037 L 4.029,20.542 C 4.029,16.442 7.357,13.114 11.457,13.114 L 71.702,13.114 C 75.802,13.114 79.13,16.442 79.13,20.542 L 79.13,55.037 C 79.13,59.137 75.802,62.465 71.702,62.465 L 11.457,62.465 C 7.357,62.465 4.029,59.137 4.029,55.037 Z" fill="#f7f7f7" stroke-width="0.5" stroke-linejoin="miter" marker-start="none" marker-end="none" stroke-miterlimit="79.8403193612775"/>
    <text xml:space="preserve" transform="translate(41.461 45.136) scale(1 -1)" font-size="8.5" font-family="Arial" stroke="none" stroke-width="0.25" fill="#000000" stroke-miterlimit="79.8403193612775"><tspan x="-27.404" y="0">Developers do</tspan><tspan x="-20.791" y="9.495">not want to</tspan><tspan x="-27.879" y="18.99">introduce bugs</tspan></text>
    <text xml:space="preserve" transform="translate(84.579 80.497) scale(1 -1)" font-size="8.5" font-family="Arial" stroke="none" stroke-width="0.25" fill="#000000" stroke-miterlimit="79.8403193612775"><tspan x="-8.972" y="0">AND</tspan></text>
    <text xml:space="preserve" transform="translate(11.079 66.247) scale(1 -1)" font-size="8.5" font-family="Arial" stroke="none" stroke-width="0.25" fill="#000000" stroke-miterlimit="79.8403193612775"><tspan x="-6.849" y="0">IF</tspan><tspan x="-0.236" y="0">...</tspan></text>
    <text xml:space="preserve" transform="translate(49.329 99.997) scale(1 -1)" font-size="8.5" font-family="Arial" stroke="none" stroke-width="0.25" fill="#000000" stroke-miterlimit="79.8403193612775"><tspan x="-15.111" y="0">THEN...</tspan></text>
    <path d="M 106.089,55.037 L 106.089,20.542 C 106.089,16.442 109.417,13.114 113.517,13.114 L 173.762,13.114 C 177.862,13.114 181.19,16.442 181.19,20.542 L 181.19,55.037 C 181.19,59.137 177.862,62.465 173.762,62.465 L 113.517,62.465 C 109.417,62.465 106.089,59.137 106.089,55.037 Z" stroke="#999999" fill="#ffffff" stroke-width="0.5" stroke-linejoin="miter" marker-start="none" marker-end="none" stroke-miterlimit="79.8403193612775"/>
    <text xml:space="preserve" transform="translate(143.728 44.292) scale(1 -1)" fill="#999999" font-size="8.5" font-family="Arial" stroke="none" stroke-width="0.25" stroke-miterlimit="79.8403193612775"><tspan x="-21.496" y="0">Developers</tspan><tspan x="-24.806" y="9.495">continue with</tspan><tspan x="-27.641" y="18.99">their old habits</tspan></text>
    <path d="M 97.764,67.396 L 196.014,2.896" fill="none" stroke="#999999" stroke-width="1" stroke-miterlimit="79.8403193612775"/>
    <path d="M 196.014,67.396 L 97.764,2.896" fill="none" stroke="#999999" stroke-width="1" stroke-miterlimit="79.8403193612775"/>
    <path d="M 44.532,159.552 L 44.532,118.737 C 44.532,113.886 48.47,109.948 53.321,109.948 L 120.782,109.948 C 125.633,109.948 129.571,113.886 129.571,118.737 L 129.571,159.552 C 129.571,164.403 125.633,168.341 120.782,168.341 L 53.321,168.341 C 48.47,168.341 44.532,164.403 44.532,159.552 Z" stroke="#999999" fill="#ffffff" stroke-width="0.5" stroke-linejoin="miter" marker-start="none" marker-end="none" stroke-miterlimit="79.8403193612775"/>
    <text xml:space="preserve" transform="translate(85.704 151.239) scale(1 -1)" fill="#999999" font-size="8.5" font-family="Arial" stroke="none" stroke-width="0.25" stroke-miterlimit="79.8403193612775"><tspan x="-30.71" y="0">Developers take</tspan><tspan x="-30.939" y="9.495">care to minimise </tspan><tspan x="-20.793" y="18.99">changes to </tspan><tspan x="-24.806" y="28.485">existing code</tspan></text>
    <path d="M 38.649,172.291 L 136.899,107.791" fill="none" stroke="#999999" stroke-width="1" stroke-miterlimit="79.8403193612775"/>
    <path d="M 136.899,172.291 L 38.649,107.791" fill="none" stroke="#999999" stroke-width="1" stroke-miterlimit="79.8403193612775"/>
    <path d="M 152.168,103.41 L 152.168,58.729 L 334.783,58.729 L 334.783,103.41 L 152.168,103.41 Z" stroke="#e4d1c4" fill="#fff1e6" stroke-width="1.593" stroke-linejoin="miter" marker-start="none" marker-end="none" stroke-miterlimit="79.8403193612775"/>
    <g id="Group" stroke-width="0.739" stroke-miterlimit="79.8403193612775">
     <path d="M 190.445,69.157 L 181.171,76.971 L 181.394,77.233 L 190.665,69.418 C 192.029,68.194 191.532,68.316 190.445,69.157 Z" fill="#ffffff" stroke-linejoin="miter" marker-start="none" marker-end="none"/>
     <path d="M 184.352,72.809 L 180.448,76.098 L 182.13,78.096 L 186.034,74.804 C 186.344,73.975 185.072,72.768 184.352,72.809 Z" fill="#b2b2b2" stroke-linejoin="miter" marker-start="none" marker-end="none"/>
     <path d="M 163.514,92.078 C 165.091,93.95 166.8,95.107 167.329,94.662 C 167.857,94.216 167.007,92.336 165.43,90.464 C 163.853,88.592 162.144,87.435 161.615,87.88 C 161.087,88.326 161.937,90.206 163.514,92.078 Z" fill="#cccccc" marker-start="none" marker-end="none"/>
     <path d="M 163.898,89.639 L 167.503,86.602 L 169.58,89.069 L 165.976,92.106 C 165.116,92.45 163.372,90.299 163.898,89.639 Z" stroke-linejoin="miter" marker-start="none" marker-end="none" fill="url(#LinearGradient)"/>
     <path d="M 167.947,88.344 C 170.593,91.485 173.252,93.604 173.882,93.074 C 174.511,92.544 172.874,89.564 170.227,86.422 C 167.581,83.281 164.922,81.162 164.292,81.692 C 163.663,82.222 165.3,85.202 167.947,88.344 Z" fill="#cccccc" marker-start="none" marker-end="none"/>
     <path d="M 167.993,85.181 L 181.2,74.055 C 182.306,73.061 185.104,76.678 184.272,77.701 L 171.066,88.826 C 170.113,89.515 167.311,85.917 167.993,85.181 Z" stroke-linejoin="miter" marker-start="none" marker-end="none" fill="url(#LinearGradient_1)"/>
     <path d="M 175.272,79.537 L 181.554,74.246 C 183.032,74.693 183.871,75.687 184.164,77.344 L 177.886,82.637 L 175.272,79.537 Z" stroke="none" stroke-linejoin="miter" marker-start="none" marker-end="none" fill="url(#LinearGradient_2)"/>
     <path d="M 172.069,81.869 C 171.977,82.185 172.802,83.284 173.382,83.731" fill="none"/>
     <path d="M 173.966,80.276 C 173.962,80.515 174.813,81.592 175.339,82.08" fill="none"/>
     <path d="M 175.741,78.778 L 177.188,80.525" fill="none"/>
     <path d="M 179.689,75.451 C 180.018,75.413 180.958,76.413 181.302,77.06" fill="none"/>
     <path d="M 177.748,77.086 C 177.959,77.15 178.87,78.173 179.275,78.765" fill="none"/>
    </g>
    <text xml:space="preserve" transform="translate(202.974 83.497) scale(1 -1)" fill="#000000" stroke-width="0.25" stroke="none" font-family="Arial" font-size="8.5" stroke-miterlimit="79.8403193612775"><tspan x="0" y="0">Developers consciously change </tspan><tspan x="0" y="9.495">their habits.</tspan></text>
   </g>
  </g>
 </g>
</svg>
